<?xml version="1.0" standalone="no"?>
<!DOCTYPE svg PUBLIC "-//W3C//DTD SVG 20010904//EN"
 "http://www.w3.org/TR/2001/REC-SVG-20010904/DTD/svg10.dtd">
<svg version="1.0" xmlns="http://www.w3.org/2000/svg"
 width="450.000000pt" height="432.000000pt" viewBox="0 0 450.000000 432.000000"
 preserveAspectRatio="xMidYMid meet">

<g transform="translate(0.000000,432.000000) scale(0.100000,-0.100000)"
fill="#000000" stroke="none">
<path d="M2264 4246 c22 -18 76 -22 76 -6 0 6 -10 10 -22 10 -13 0 -34 3 -48
6 -24 5 -24 5 -6 -10z"/>
<path d="M1865 4231 c-147 -5 -175 -9 -200 -26 -17 -10 -42 -18 -57 -16 -41 4
-134 -23 -218 -64 -41 -19 -66 -33 -55 -29 11 4 47 8 80 9 l60 2 -40 -18 c-22
-10 -45 -19 -51 -19 -13 0 -39 -28 -32 -35 2 -2 26 7 53 20 26 14 60 25 74 25
25 0 25 0 5 -14 -11 -8 -47 -22 -79 -31 -75 -22 -202 -73 -235 -96 -14 -9 -41
-24 -60 -33 -87 -40 -166 -90 -203 -129 -16 -17 -34 -27 -42 -23 -8 3 -14 0
-12 -7 1 -6 -9 -13 -23 -15 -14 -2 -32 -6 -40 -9 -8 -3 -21 -7 -29 -9 -8 -1
-24 -13 -35 -25 l-21 -22 28 17 c52 32 41 7 -26 -61 -37 -36 -67 -70 -67 -74
0 -5 -23 -27 -51 -49 -36 -28 -60 -59 -79 -98 -37 -77 -70 -107 -125 -111 -11
-1 -76 -125 -93 -176 -5 -16 -13 -39 -17 -49 -6 -14 -5 -17 3 -12 7 4 12 2 12
-5 0 -16 137 129 145 153 7 21 48 35 53 19 2 -6 8 -8 14 -5 5 3 -14 -32 -43
-77 -56 -90 -155 -290 -185 -378 -20 -58 -35 -71 -60 -50 -15 12 -16 54 -3
123 6 29 -23 42 -60 26 -26 -10 -31 -18 -31 -45 0 -18 -12 -57 -27 -86 -26
-48 -28 -64 -31 -180 l-4 -126 46 -27 c34 -20 46 -33 46 -51 0 -13 7 -28 15
-32 23 -13 10 -273 -14 -273 -9 0 -22 -14 -28 -30 -10 -27 -9 -31 9 -41 15 -8
17 -13 8 -19 -9 -6 -10 -19 -4 -46 4 -22 8 -53 8 -71 1 -25 -2 -29 -15 -23
-11 6 -19 38 -27 112 -7 57 -12 117 -11 133 l0 30 11 -25 c15 -37 20 -9 7 41
-6 24 -14 72 -16 107 -5 67 -17 76 -40 31 -37 -72 17 -622 71 -728 8 -14 22
-53 31 -86 20 -70 51 -148 104 -260 21 -44 48 -103 60 -131 13 -28 49 -77 81
-110 33 -32 64 -74 70 -91 6 -18 22 -41 34 -51 13 -10 26 -28 30 -40 4 -12 15
-22 25 -22 10 0 24 -7 31 -15 10 -13 15 -13 21 -3 6 9 10 7 14 -7 22 -67 28
-75 46 -70 21 7 72 -22 63 -36 -3 -5 5 -9 18 -9 43 -1 104 -37 153 -92 28 -30
67 -65 88 -77 20 -12 37 -26 37 -31 0 -4 8 -10 18 -13 59 -18 139 -51 152 -63
9 -7 36 -20 60 -29 24 -8 49 -24 57 -35 7 -10 30 -22 51 -26 20 -3 68 -15 107
-25 38 -11 86 -19 106 -19 21 0 39 -5 41 -11 2 -7 68 -17 168 -25 91 -8 178
-19 194 -24 16 -6 97 -10 180 -9 135 1 206 5 409 25 38 4 57 2 57 -5 0 -6 -15
-11 -32 -11 -18 0 -71 -7 -118 -16 -94 -17 -508 -34 -526 -22 -6 5 -49 11 -95
14 -92 5 -231 33 -352 70 -43 13 -101 24 -130 23 l-52 0 75 -30 c82 -32 168
-57 245 -69 28 -5 84 -16 125 -24 128 -27 377 -39 520 -25 69 6 133 12 143 13
9 0 17 3 17 7 0 4 30 10 68 13 37 3 83 7 102 10 188 23 230 30 260 46 19 10
53 24 75 30 22 7 67 27 100 45 33 18 69 35 80 37 11 2 20 10 20 18 0 8 14 17
35 21 18 4 40 15 47 25 7 9 21 22 32 28 11 6 58 39 105 73 47 34 98 69 113 76
15 8 37 25 48 37 11 12 43 37 70 55 28 17 58 40 68 50 20 19 65 33 145 44 28
4 57 12 64 19 6 6 15 39 19 73 5 45 14 68 32 87 31 32 62 99 77 167 6 27 18
57 26 66 9 10 14 26 12 37 -2 11 7 31 19 44 14 16 23 40 26 78 4 45 72 267
108 355 15 35 59 301 59 351 -1 27 -8 78 -17 114 -9 36 -19 128 -23 205 -5
102 -14 165 -32 233 -14 50 -22 95 -17 98 14 8 11 57 -5 79 -7 11 -17 49 -20
85 -4 36 -21 110 -38 165 -24 78 -38 107 -65 132 -22 21 -33 41 -33 60 0 28
-13 56 -95 203 -20 36 -51 92 -69 125 -34 61 -52 73 -49 30 1 -17 -3 -22 -13
-18 -8 3 -14 14 -14 24 0 20 -9 29 -81 89 -23 19 -77 69 -119 110 -145 142
-200 190 -233 204 -19 7 -49 29 -68 48 -33 33 -137 94 -145 85 -3 -3 17 -17
43 -33 44 -26 193 -141 193 -149 0 -9 -116 37 -186 75 -42 23 -109 48 -148 57
-39 9 -78 22 -86 29 -17 14 -209 79 -266 90 -19 3 -37 10 -40 15 -3 5 -20 9
-39 9 -19 0 -37 5 -40 10 -4 7 -13 7 -26 0 -13 -8 -25 -7 -40 0 -11 6 -25 9
-32 7 -7 -2 -23 0 -36 5 -14 5 -56 11 -95 14 -38 3 -73 7 -78 10 -15 10 -8 24
12 24 11 0 20 -4 20 -10 0 -5 8 -10 18 -10 14 1 14 3 -6 19 -16 14 -29 17 -50
11 -15 -4 -26 -12 -24 -19 3 -16 -68 -13 -98 4 -14 8 -52 15 -85 15 -73 2 -54
12 55 31 l75 13 -45 7 c-25 4 -54 7 -65 6 -11 0 -97 -3 -190 -6z m-1204 -819
c-46 -58 -59 -68 -53 -37 2 14 9 25 15 25 5 0 20 11 33 25 36 39 39 30 5 -13z
m-102 -127 c-23 -30 -43 -55 -45 -55 -14 0 1 33 32 68 52 61 62 51 13 -13z
m2246 -271 c42 -17 45 -45 45 -434 0 -389 -3 -417 -45 -434 -9 -3 -263 -6
-564 -6 l-548 0 -27 25 -26 24 0 389 c0 379 1 390 21 416 l20 26 554 0 c304 0
561 -3 570 -6z"/>
<path d="M1700 2987 l-25 -13 -3 -382 c-1 -253 1 -390 8 -402 10 -19 25 -20
560 -20 485 0 550 2 564 16 14 13 16 63 16 393 0 310 -3 381 -14 397 -14 18
-33 19 -548 21 -417 2 -538 0 -558 -10z m188 -99 c30 -64 -48 -118 -98 -68
-43 43 -12 103 49 98 28 -2 39 -9 49 -30z m154 15 c24 -21 23 -58 -2 -83 -54
-54 -137 12 -95 76 19 29 69 33 97 7z m162 1 c21 -20 20 -63 -1 -86 -35 -39
-103 -11 -103 43 0 36 24 59 60 59 16 0 36 -7 44 -16z m396 -289 c0 -13 -44
-15 -340 -15 -296 0 -340 2 -340 15 0 13 44 15 340 15 296 0 340 -2 340 -15z
m-140 -90 c0 -13 -29 -15 -205 -15 -176 0 -205 2 -205 15 0 13 29 15 205 15
176 0 205 -2 205 -15z"/>
<path d="M1812 2888 c-30 -30 1 -73 36 -51 23 14 25 29 7 47 -20 19 -27 20
-43 4z"/>
<path d="M1975 2884 c-18 -18 -16 -33 7 -47 21 -14 48 -2 48 22 0 30 -34 45
-55 25z"/>
<path d="M2140 2885 c-19 -23 -8 -50 20 -50 16 0 26 6 28 18 4 18 -14 47 -28
47 -4 0 -13 -7 -20 -15z"/>
<path d="M2510 4210 c0 -5 5 -10 11 -10 5 0 7 5 4 10 -3 6 -8 10 -11 10 -2 0
-4 -4 -4 -10z"/>
<path d="M2710 4161 c0 -5 5 -13 10 -16 6 -3 10 -2 10 4 0 5 -4 13 -10 16 -5
3 -10 2 -10 -4z"/>
<path d="M2375 4150 c4 -6 11 -8 16 -5 14 9 11 15 -7 15 -8 0 -12 -5 -9 -10z"/>
<path d="M2850 4100 c20 -13 53 -13 45 0 -3 6 -18 10 -33 10 -21 0 -24 -2 -12
-10z"/>
<path d="M1235 4066 c-58 -21 -119 -55 -112 -62 2 -2 30 10 63 25 32 16 75 36
94 45 52 22 24 17 -45 -8z"/>
<path d="M2947 4069 c7 -7 15 -10 18 -7 3 3 -2 9 -12 12 -14 6 -15 5 -6 -5z"/>
<path d="M893 3867 c-4 -7 -21 -21 -36 -31 -34 -21 -32 -26 6 -19 17 3 33 16
43 34 14 28 3 42 -13 16z"/>
<path d="M753 3754 c-18 -7 -37 -23 -43 -34 -18 -33 12 -25 50 15 19 19 32 35
29 34 -2 0 -18 -7 -36 -15z"/>
<path d="M577 3578 c-46 -46 -90 -94 -99 -108 -21 -36 -29 -60 -19 -60 21 0
231 222 231 244 0 22 -40 -5 -113 -76z"/>
<path d="M470 3390 c-8 -5 -12 -12 -9 -15 4 -3 12 1 19 10 14 17 11 19 -10 5z"/>
<path d="M402 3354 c-12 -19 -20 -39 -16 -45 7 -12 54 48 54 68 0 22 -14 14
-38 -23z"/>
<path d="M382 3105 c-19 -41 -14 -53 8 -20 22 32 25 45 12 45 -5 0 -14 -11
-20 -25z"/>
<path d="M4357 2183 c-10 -10 -8 -75 2 -69 5 3 11 22 13 41 4 34 -1 43 -15 28z"/>
<path d="M4380 2149 c0 -5 5 -7 10 -4 6 3 10 8 10 11 0 2 -4 4 -10 4 -5 0 -10
-5 -10 -11z"/>
<path d="M4374 2058 c-14 -29 -19 -55 -16 -81 2 -22 -1 -44 -9 -53 -7 -8 -15
-31 -18 -50 -9 -53 -26 -40 -24 17 1 27 -1 47 -6 45 -9 -6 -25 -82 -22 -103 1
-7 -3 -13 -9 -13 -7 0 -9 -10 -6 -27 11 -47 -12 -175 -44 -256 -17 -42 -34
-97 -39 -123 -5 -25 -14 -51 -20 -57 -6 -6 -11 -22 -11 -35 0 -14 -9 -40 -21
-58 -22 -37 -10 -46 25 -19 30 22 39 18 34 -15 -6 -37 7 -48 22 -20 6 11 17
20 24 20 15 0 72 118 83 170 3 19 14 48 24 65 21 36 59 173 53 190 -3 6 2 18
11 25 18 15 20 47 3 53 -10 3 -9 9 3 23 9 10 21 53 27 95 6 41 14 82 17 91 6
15 -13 41 -37 51 -10 4 -10 8 -1 14 9 6 9 19 0 51 -6 23 -14 42 -17 42 -3 0
-15 -19 -26 -42z"/>
<path d="M580 686 c0 -2 7 -9 15 -16 9 -7 15 -8 15 -2 0 5 -7 12 -15 16 -8 3
-15 4 -15 2z"/>
</g>
</svg>
